HIERARCHY
ROOT Hips
{
  OFFSET 90.7885 88.945 -76.2838
  CHANNELS 6 Xposition Yposition Zposition Zrotation Xrotation Yrotation
  JOINT LeftUpLeg
  {
    OFFSET 8.64259 1.95398 -2.38835
    CHANNELS 3 Zrotation Xrotation Yrotation
    JOINT LeftLeg
    {
      OFFSET 43.7702 0 0
      CHANNELS 3 Zrotation Xrotation Yrotation
      JOINT LeftFoot
      {
        OFFSET 40.6238 0 0
        CHANNELS 3 Zrotation Xrotation Yrotation
        JOINT LeftToeBase
        {
          OFFSET 12.7242 0 0
          CHANNELS 3 Zrotation Xrotation Yrotation
          End Site
          {
            OFFSET 0 0 0
          }
        }
      }
    }
  }
  JOINT RightUpLeg
  {
    OFFSET -8.2249 1.95398 -2.59336
    CHANNELS 3 Zrotation Xrotation Yrotation
    JOINT RightLeg
    {
      OFFSET 43.5653 0 0
      CHANNELS 3 Zrotation Xrotation Yrotation
      JOINT RightFoot
      {
        OFFSET 40.6238 0 0
        CHANNELS 3 Zrotation Xrotation Yrotation
        JOINT RightToeBase
        {
          OFFSET 12.7242 0 0
          CHANNELS 3 Zrotation Xrotation Yrotation
          End Site
          {
            OFFSET 0 0 0
          }
        }
      }
    }
  }
  JOINT Spine
  {
    OFFSET 0.165834 0.87714 6.61349
    CHANNELS 3 Zrotation Xrotation Yrotation
    JOINT Spine1
    {
      OFFSET 7.38963 1.71661e-005 0
      CHANNELS 3 Zrotation Xrotation Yrotation
      JOINT Spine2
      {
        OFFSET 11.9445 1.14441e-005 0
        CHANNELS 3 Zrotation Xrotation Yrotation
        JOINT Spine3
        {
          OFFSET 14.7254 4.19617e-005 0
          CHANNELS 3 Zrotation Xrotation Yrotation
          JOINT Spine4
          {
            OFFSET 10.9679 0 0
            CHANNELS 3 Zrotation Xrotation Yrotation
            JOINT RightShoulder
            {
              OFFSET 2.46616 -1.6653 3.69651
              CHANNELS 3 Zrotation Xrotation Yrotation
              JOINT RightArm
              {
                OFFSET 13.0012 0 0
                CHANNELS 3 Zrotation Xrotation Yrotation
                JOINT RightForeArm
                {
                  OFFSET 28.7848 1.52588e-005 0
                  CHANNELS 3 Zrotation Xrotation Yrotation
                  JOINT RightHand
                  {
                    OFFSET 26.5688 1.52588e-005 0
                    CHANNELS 3 Zrotation Xrotation Yrotation
                    End Site
                    {
                      OFFSET 0 0 0
                    }
                  }
                }
              }
            }
            JOINT LeftShoulder
            {
              OFFSET 2.38034 -1.29275 -3.7523
              CHANNELS 3 Zrotation Xrotation Yrotation
              JOINT LeftArm
              {
                OFFSET 16.3182 6.10352e-005 0
                CHANNELS 3 Zrotation Xrotation Yrotation
                JOINT LeftForeArm
                {
                  OFFSET 27.0901 0 0
                  CHANNELS 3 Zrotation Xrotation Yrotation
                  JOINT LeftHand
                  {
                    OFFSET 24.5451 1.52588e-005 0
                    CHANNELS 3 Zrotation Xrotation Yrotation
                    End Site
                    {
                      OFFSET 0 0 0
                    }
                  }
                }
              }
            }
            JOINT Neck
            {
              OFFSET 5.0226 -0.0266342 0
              CHANNELS 3 Zrotation Xrotation Yrotation
              JOINT Head
              {
                OFFSET 6.69363 2.86102e-005 0
                CHANNELS 3 Zrotation Xrotation Yrotation
                End Site
                {
                  OFFSET 0 0 0
                }
              }
            }
          }
        }
      }
    }
  }
}
MOTION
Frames:	18
Frame Time:	0.0416667
-96.6438 82.6224 -94.8226 20.2045 -54.0091 24.4377 -149.139 54.7721 72.1893 -70.9399 -3.88178 -14.7862 100.759 11.7506 -14.9389 30.8782 8.70256 -13.4698 -172.665 43.527 61.9526 -62.9518 -3.21126 -8.45446 68.2037 -4.52922 -4.35537 13.3112 0.73956 1.62615 -0.0117677 11.6077 -91.9873 3.6292 -0.818691 -3.88725 -8.04718 -0.988851 -3.84754 -30.5358 0.386459 -3.95358 -10.5231 0.386464 -3.95358 87.341 -23.1243 -115.465 8.51708 -5.04572 6.88427 3.52802 -3.56466 -24.1005 -30.2209 2.2058 -14.0888 -93.2716 -38.0045 70.1871 16.2695 23.404 -60.8331 23.9582 -3.86341 -69.2447 7.42063 -0.828922 -12.9739 31.2332 -0.115746 -7.01547 -5.66904 2.45983 10.4473 
-92.4897 81.2623 -89.6788 32.458 -55.386 35.8452 -155.599 45.3796 75.1974 -70.0921 1.13591 -12.5364 105.117 14.5017 -11.6648 31.4124 8.78417 -13.8301 -165.056 40.5241 61.4403 -81.9452 -14.1384 -8.93959 70.8076 -6.1779 -7.07141 8.99117 -1.7888 6.18907 -0.407293 11.2154 -92.0384 4.39638 -1.64259 -3.98125 -7.27938 -1.81608 -3.90525 -29.7665 -0.371367 -4.29027 -9.75384 -0.371361 -4.29028 87.898 -26.9441 -112.324 17.6893 -6.13039 17.2502 2.29209 -5.92368 -28.6322 -33.1507 2.35833 -14.1741 -93.0509 -38.9338 70.9026 20.0123 28.8393 -54.5676 28.1584 -9.48681 -77.6316 8.17891 -0.885974 -12.9709 25.7754 1.06654 -7.76262 -3.71542 3.65032 11.972 
-88.4257 79.8483 -84.5474 45.1414 -55.9741 47.0784 -160.787 35.0343 77.2308 -69.7521 1.4981 -10.3977 108.85 15.8335 -11.6742 33.5559 8.08713 -13.7201 -161.414 41.683 62.7733 -96.5953 -10.7575 -5.53905 77.3691 -9.66842 -6.45546 11.0836 -3.66204 9.03109 -0.738207 10.8968 -91.8235 5.03152 -2.22637 -3.54078 -6.64206 -2.37996 -3.4395 -29.1432 -1.06032 -4.04539 -9.13055 -1.06031 -4.0454 89.8263 -28.648 -107.638 30.973 -6.4698 29.093 -2.27602 -11.8364 -34.2709 -40.6979 1.59604 -11.459 -91.3843 -35.4509 72.6111 24.9167 27.2411 -52.6729 34.257 -15.0629 -85.4244 8.33927 -0.876637 -12.7402 21.4675 1.14541 -11.7764 -2.95454 4.80834 15.3606 
-84.1149 78.9491 -79.2911 52.4212 -54.0541 55.0404 -165.024 27.1847 79.5739 -67.5346 1.52039 -8.62685 110.987 16.5714 -11.7599 36.7049 6.68262 -12.871 -163.983 50.4551 67.4417 -105.033 1.20648 -2.6244 84.7153 -13.087 -5.04989 12.9276 -1.50606 5.39529 -1.32964 10.4899 -91.6591 5.83592 -3.35168 -3.16817 -5.83419 -3.4878 -3.01763 -28.3565 -2.24543 -4.02817 -8.34385 -2.24542 -4.02816 90.7941 -27.3531 -106.174 44.4292 -8.38861 40.1166 -5.02966 -14.0908 -38.4606 -43.7878 0.956202 -9.85034 -88.5213 -28.8371 75.7509 26.0503 19.7865 -49.6114 33.7901 -17.9292 -91.4949 11.8088 -0.802463 -9.98178 20.4559 3.59991 -14.133 -4.85965 7.52919 16.6164 
-79.2777 78.9203 -73.1359 53.7172 -52.5726 60.2653 -167.514 20.0551 84.4748 -61.9569 2.54404 -7.5315 110.306 16.2934 -11.8505 38.7834 6.83332 -14.0523 -172.953 61.7196 80.1166 -104.55 2.68127 -1.44883 91.114 -15.9318 -3.90375 12.8715 -1.08445 4.68731 -1.81255 10.06 -91.7665 6.67508 -4.37309 -3.31179 -4.9922 -4.51454 -3.11603 -27.5286 -3.1766 -4.47218 -7.51601 -3.17659 -4.47217 93.3925 -23.0055 -102.052 57.8514 -13.8572 49.3048 -9.82976 -16.1129 -43.9684 -42.9451 0.906177 -10.6097 -85.7731 -19.4802 78.5095 26.0035 13.8433 -46.9918 35.7742 -18.2376 -93.4637 16.1518 -1.12672 -10.7213 20.6861 6.78704 -15.8977 -6.96796 10.8443 17.6419 
-72.9272 79.9268 -66.3587 53.2459 -52.2306 63.9952 -169.996 10.4207 87.412 -49.7104 6.96411 -6.46945 102.214 16.1994 -5.40792 43.694 6.45829 -15.8803 173.336 68.8104 97.6485 -95.0401 0.0590525 -0.140435 94.7567 -16.4511 -0.225386 14.2395 -0.536962 3.58398 -2.6197 9.72382 -92.3651 7.29464 -6.25217 -4.36895 -4.36777 -6.4382 -4.08919 -26.9183 -4.65255 -6.04452 -6.90571 -4.65254 -6.04451 94.3256 -12.6201 -104.53 72.0489 -17.6897 60.1837 -24.2559 -18.5062 -53.1285 -45.3966 0.0205286 -10.0026 -83.2982 -13.5656 82.7839 25.4928 12.5482 -43.7374 34.7381 -18.7851 -95.22 14.3246 -1.19868 -11.9255 22.0573 12.5734 -10.9366 -9.92969 14.5252 17.1304 
-65.5165 81.6254 -59.3921 51.8758 -53.9926 65.8279 -174.114 -2.00902 88.1242 -30.9566 8.25854 -3.57339 86.018 11.7965 1.1439 49.2772 6.33729 -18.9335 161.382 70.9208 113.361 -80.8875 -7.33691 2.01276 92.2641 -15.6555 -1.22202 18.8922 -1.49643 4.78862 -2.59587 9.5512 -92.5191 7.62148 -6.27666 -4.65246 -4.04163 -6.47511 -4.37142 -26.5831 -4.59108 -6.32162 -6.5704 -4.59108 -6.32161 94.1843 -14.5851 -103.644 74.2799 -20.1206 66.3686 -36.0351 -18.2112 -58.9625 -46.2084 0.844283 -13.7755 -83.0619 -7.2394 81.2342 27.3442 14.6547 -43.0426 36.7233 -19.8457 -94.6508 14.6098 -1.31914 -12.5858 25.9208 14.0644 -12.2452 -13.7137 16.0267 18.8997 
-57.275 83.538 -51.9756 48.8419 -56.7938 65.4086 -179.046 -8.21197 85.2395 -21.442 9.44642 0.384181 61.6227 1.32427 5.52269 46.4132 6.47001 -19.0709 159.489 69.5934 119.871 -68.7527 -5.79144 3.58165 90.4647 -13.8367 1.71833 19.0564 -1.35405 4.49727 -2.42942 9.33423 -92.8886 8.03173 -6.11345 -5.36247 -3.63479 -6.34321 -5.08827 -26.1443 -4.22344 -6.94775 -6.13162 -4.22344 -6.94775 93.6717 -15.8966 -104.37 69.5324 -22.8198 67.4211 -45.2155 -17.6681 -63.6937 -51.7889 0.448004 -13.3553 -83.704 -8.16066 79.6819 28.0908 18.3981 -42.5302 36.321 -21.154 -95.0511 15.2745 -1.12215 -11.0042 29.7572 16.5555 -10.0264 -16.7762 17.4598 18.4566 
-49.585 83.9075 -44.647 46.675 -60.1703 63.3803 -178.577 -8.98352 83.5598 -24.641 14.2763 -1.02553 51.493 -3.47703 1.00273 27.0651 1.95623 -2.05972 165.469 65.4249 117.683 -61.9989 -6.76436 3.55501 89.8291 -13.7342 1.42732 20.5119 -0.604812 2.85523 -2.19923 9.1328 -92.8828 8.44759 -5.66067 -5.35241 -3.22104 -5.89043 -5.0983 -25.7193 -3.79452 -6.80201 -5.70669 -3.79451 -6.80202 91.9169 -19.202 -107.174 56.3981 -23.0142 59.5637 -47.2718 -16.8578 -67.4135 -53.1271 -0.115076 -12.3248 -84.5594 -14.1472 79.6753 26.9423 24.0526 -44.3647 38.6748 -21.8895 -93.1933 14.722 -0.95188 -10.0936 31.7332 19.2791 -7.45085 -16.7133 19.4263 16.2372 
-42.6322 83.6399 -38.2489 48.7922 -62.0629 62.6063 -174.157 -6.47066 83.2715 -36.6117 21.7712 -5.0407 52.3582 -3.24791 0.0747964 36.4712 1.66875 -4.38124 172.058 59.6032 110.205 -61.3181 -7.78507 2.1071 80.8142 -9.73376 1.24101 17.667 0.863109 0.592209 -1.91753 9.05779 -92.5223 8.63507 -4.94304 -4.67217 -3.03408 -5.14367 -4.45023 -25.5412 -3.31311 -5.93897 -5.52853 -3.31309 -5.93896 90.8065 -25.8464 -106.788 38.3425 -19.831 44.3728 -51.6919 -16.1773 -74.2014 -53.8567 -2.15213 -8.39898 -86.3878 -24.0159 78.5757 23.8051 30.1015 -44.0126 42.8672 -20.9556 -90.1267 14.0915 -0.844627 -9.57753 35.6638 20.2869 -3.73057 -16.8466 19.437 11.8421 
-35.7948 83.0545 -32.023 52.3603 -62.0148 63.1262 -168.053 3.14728 84.1677 -62.0585 14.4497 -5.38533 54.1207 -2.23302 0.795547 36.1805 2.05318 -4.94154 175.105 54.5487 103.229 -67.5193 -6.42422 0.711818 89.4904 -12.8447 4.45907 19.5365 -1.24996 4.24674 -1.56195 8.90715 -92.1542 8.97257 -4.07603 -3.98505 -2.69754 -4.24735 -3.80191 -25.2098 -2.69163 -5.02409 -5.19712 -2.69163 -5.02411 89.2513 -30.7236 -107.95 25.3465 -10.8417 28.3423 -49.0408 -12.4783 -79.9989 -57.306 -1.81119 -8.5074 -88.976 -36.195 77.0803 19.126 34.9398 -39.3635 48.5248 -18.1142 -85.835 14.3126 -0.48812 -7.0807 36.483 19.974 0.343049 -14.8003 17.9875 7.61176 
-29.3162 82.8036 -25.7395 52.2813 -64.3155 65.4229 -160.851 18.1608 89.551 -87.1892 2.94769 -1.56359 62.2836 1.0516 3.13911 31.295 3.56967 -5.9096 175.872 46.3173 102.694 -66.7458 -7.43633 0.598778 96.745 -15.894 5.641 19.344 -2.14915 5.95297 -0.578885 8.78304 -92.3456 9.2421 -2.2056 -4.4874 -2.43434 -2.40076 -4.38622 -24.9104 -0.75685 -4.94167 -4.89772 -0.756852 -4.94168 88.825 -31.8438 -108.337 19.6188 -0.971438 10.8727 -51.0599 -7.87803 -86.957 -54.4535 -2.16253 -7.95004 -90.1845 -46.7167 77.724 5.53638 36.5616 -25.5815 52.8828 -15.0902 -83.9298 15.7365 -0.133303 -4.59333 33.5461 19.0561 5.49523 -10.3734 15.5431 4.10802 
-22.8733 82.3023 -19.1016 54.1296 -66.3111 68.7281 -157.869 35.1558 91.7702 -103.561 2.38934 2.85556 70.1402 4.86782 9.24123 25.6569 7.90073 -10.2635 177.139 36.5056 100.829 -64.6093 -6.17935 0.091783 104.175 -17.5205 9.93528 22.6049 -0.766267 2.90105 0.258454 8.67246 -92.3742 9.49441 -0.553827 -4.66482 -2.18468 -0.758356 -4.63602 -24.6541 0.872183 -4.61602 -4.64143 0.872188 -4.616 88.8557 -31.3849 -108.49 17.3458 5.11296 -8.33283 -48.6651 -5.69988 -92.2888 -53.5926 -2.33208 -7.07734 -88.7251 -49.0262 80.4539 -16.1485 31.7244 2.06553 48.33 -19.5958 -90.6721 19.5856 -0.496014 -6.49398 32.8244 17.5417 8.21266 -9.30706 13.2192 1.21432 
-15.9093 81.5968 -12.6697 51.376 -66.1985 63.5939 -157.266 51.9495 88.1825 -109.633 3.30438 4.32715 75.4132 7.63 9.18628 24.5662 8.20129 -10.31 177.925 29.4641 94.4807 -61.6501 -4.5546 -1.51141 111.031 -17.5912 15.3543 24.3757 -0.450813 1.91138 1.07175 8.23916 -91.8529 10.4029 1.28622 -3.79578 -1.27313 1.11805 -3.84861 -23.7792 2.367 -3.23468 -3.76651 2.367 -3.23467 87.8641 -27.4557 -112.115 17.1884 15.7441 -22.4581 -45.8569 -5.05412 -98.8216 -53.2985 -2.40757 -6.58392 -84.8629 -45.1894 85.8049 -27.699 25.2656 24.7991 44.7576 -25.2727 -99.5413 22.6447 -0.692299 -7.0941 30.3583 14.3059 10.4646 -6.01135 9.5222 -0.926164 
-7.91751 81.9573 -4.95297 52.9329 -64.9635 61.9443 -159.079 63.1168 86.5539 -104.902 3.75657 3.84673 78.0736 8.59099 6.63679 29.9875 5.82983 -8.90096 176.108 18.5605 87.8268 -54.6902 -12.5596 -3.19484 108.068 -19.7834 8.29836 29.269 -0.854139 1.91881 1.98555 7.90642 -91.2389 11.0997 3.37741 -2.79254 -0.570178 3.2513 -2.93847 -23.1303 4.06028 -1.64764 -3.1177 4.06029 -1.64766 90.1184 -20.9003 -110.528 21.0754 25.0563 -32.0266 -49.5123 -5.17276 -105.778 -52.8324 -4.10293 -3.69419 -82.9837 -38.9113 88.0929 -29.1501 26.0501 39.388 45.4173 -31.3962 -103.942 24.7292 -0.6575 -6.72202 30.0105 9.79577 11.5725 -6.11355 4.82223 -2.41214 
1.04567 84.0023 4.12731 59.7845 -62.296 65.24 -161.786 67.0143 86.1523 -91.9617 6.31845 1.62863 83.2516 10.6093 3.37834 25.3924 5.71622 -7.23464 172.038 4.48083 81.7931 -40.1451 -19.602 -4.73034 92.0287 -15.8923 0.0741579 42.4318 -2.16214 3.03863 2.74432 7.81238 -90.5888 11.2974 5.18736 -1.68679 -0.364473 5.10808 -1.91397 -22.9833 5.45382 -0.0452911 -2.9706 5.45382 -0.0452964 93.2869 -12.511 -107.065 30.1388 34.1343 -35.8782 -49.6364 -5.37285 -113.68 -52.3605 -4.66642 -2.90944 -83.1717 -31.2025 86.6753 -31.6516 31.4465 48.3975 43.9493 -33.9367 -103.829 24.3797 -0.579449 -6.42269 31.3334 4.32189 10.4923 -7.73766 -0.0761254 -2.79485 
10.9309 86.8945 14.3341 66.2701 -57.3097 67.0921 -163.277 64.2426 82.9976 -72.346 9.01253 -2.71979 81.0485 9.41186 1.46021 26.7338 4.40591 -5.84792 166.721 -9.53156 76.9517 -25.4433 -24.6672 -6.21273 65.004 -3.29132 -4.35009 52.8042 -3.96874 7.68798 3.09076 7.79514 -89.7252 11.3028 6.27884 -0.0787499 -0.352925 6.26925 -0.356132 -23.0034 6.01111 1.81893 -2.99073 6.01112 1.81893 94.7764 -7.88994 -105.4 33.6027 38.656 -30.8371 -46.9043 -4.30788 -120.068 -52.2651 -4.402 -3.4806 -83.765 -23.1032 83.9503 -39.0926 37.7545 54.7865 44.1631 -35.2947 -101.069 26.9174 -0.715379 -6.75795 36.1194 -1.39207 6.25419 -13.0492 -3.99066 -1.84626 
20.8612 89.4738 24.6467 68.3145 -52.0261 65.4209 -165.15 58.695 80.4081 -50.4947 9.82019 -7.75366 78.869 8.50561 1.70568 24.8414 4.98702 -6.10131 165.529 -14.0497 74.7499 -24.607 -22.686 -8.27534 53.5609 2.92371 -0.946811 17.8398 0.349865 2.52531 3.21119 7.75639 -88.8386 11.3298 6.93164 1.62136 -0.323201 6.99622 1.31329 -22.9731 6.123 3.63622 -2.9604 6.12302 3.63622 94.569 -7.52299 -106.223 30.3448 38.335 -21.5131 -43.3488 -4.40362 -123.255 -51.0856 -2.97695 -5.98624 -85.0123 -18.5738 80.0021 -44.1519 42.9263 55.5345 44.4026 -36.2245 -99.5001 28.5862 -0.412482 -5.52983 40.267 -6.10684 2.90349 -18.0697 -6.91762 -2.05702 
